<?xml version="1.0" encoding="UTF-8"?>
<!-- Generated by Pixelmator Pro 3.7.1 -->
<svg width="1100" height="788" viewBox="0 0 1100 788" xmlns="http://www.w3.org/2000/svg">
    
    <g id="Group">
        <path id="Path" fill="#e2e8f0" stroke="none" d="M 536.133362 55.333374 C 541.866638 57.466675 551.599976 67.06665 583.333313 101.333313 C 621.466675 142.533325 622.533325 143.599976 627.466675 144.666687 C 630.666687 145.333313 633.06665 144.400024 640.266663 139.599976 C 645.333313 136.400024 651.733337 132.93335 654.533325 132 C 661.200012 129.866638 672.133362 130.93335 679.06665 134.533325 C 685.200012 137.599976 690.266663 143.466675 759.599976 226 C 806 281.333313 854.93335 339.200012 960.533325 463.866638 C 1008.533325 520.533325 1009.733276 522.400024 998.800049 526.533325 C 996.133301 527.599976 867.200012 528 562 528 L 128.933334 527.866638 L 125.46666 525.200012 C 121.066666 521.733337 121.066666 519.200012 125.733337 511.866638 C 127.866669 508.666687 160.666656 462.133362 198.933319 408.666687 C 262.933319 318.799988 326.266663 229.599976 340.266663 209.733337 C 349.066681 197.200012 352.399994 195.333313 365.333344 195.599976 C 371.200012 195.733337 378.133331 196.133362 380.666656 196.400024 C 386.266663 197.06665 389.333344 195.599976 393.733337 190.400024 C 396.93335 186.666687 434.133362 140.799988 477.466675 87.200012 C 490.666687 70.93335 501.200012 59.199951 504.133362 57.466675 C 513.200012 52.133301 525.06665 51.333374 536.133362 55.333374 Z M 503.333313 650.666626 L 503.333313 722.666626 L 491.06665 722.666626 L 478.666687 722.666626 L 479.06665 650.666626 L 479.333313 578.666687 L 491.333313 578.666687 L 503.333313 578.666687 L 503.333313 650.666626 Z M 651.333313 607.466675 L 651.333313 636.400024 L 654.133362 632.799988 C 655.733337 630.799988 660 627.599976 663.733337 625.733337 C 669.733337 622.666626 672.266663 622.133301 682 622.133301 C 690.666687 622.133301 694.799988 622.93335 699.733337 625.06665 C 708.133362 628.93335 718.666687 639.599976 723.06665 649.06665 C 726.400024 656 726.666687 658 726.666687 673.333374 C 726.666687 689.466675 726.533325 690.266663 722.400024 698.799988 C 714.799988 714.400024 701.466675 723.733337 685.200012 725.06665 C 674.666687 725.866699 664 722.666626 656.799988 716.533325 C 651.06665 711.599976 650.266663 711.200012 650.400024 713.599976 C 650.400024 714.533325 650.266663 716.93335 650.266663 718.93335 L 650 722.666626 L 638.666687 722.666626 L 627.333313 722.666626 L 627.333313 650.666626 L 627.333313 578.666687 L 639.333313 578.666687 L 651.333313 578.666687 L 651.333313 607.466675 Z M 1001.733276 587.333313 C 1006.266724 592.666687 1005.866699 601.733337 1000.800049 606.799988 C 997.599976 609.866699 995.733276 610.666626 990.93335 610.666626 C 980.800049 610.666626 974.133301 602.400024 976.800049 592.799988 C 980 581.599976 994 578.533325 1001.733276 587.333313 Z M 327.333344 610.266663 L 327.333344 624 L 340.666656 624 L 354 624 L 354 634.666626 L 354 645.333374 L 340.666656 645.333374 L 327.333344 645.333374 L 327.333344 670.799988 L 327.333344 696.266663 L 331.333344 700.133301 C 335.066681 703.866699 335.866669 704.133301 344.266663 703.866699 L 353.333344 703.466675 L 353.733337 713.599976 L 354.133331 723.599976 L 347.866669 724.533325 C 330.266663 726.93335 319.866669 724.666626 311.866669 716.666626 C 304 708.799988 302.799988 702.93335 302.799988 672.666626 C 302.799988 658.666626 302.266663 646.93335 301.600006 646.533325 C 301.066681 646.133301 297.866669 645.866699 294.533325 646 L 288.666656 646.133301 L 288.666656 635.06665 L 288.666656 624 L 295.733337 624 L 302.799988 624 L 302.666656 610.666626 L 302.399994 597.466675 L 308.533325 597.06665 C 311.866669 596.799988 317.466675 596.666626 321.066681 596.533325 L 327.333344 596.400024 L 327.333344 610.266663 Z M 186.666656 622.799988 C 190.266663 623.733337 194.266663 626.533325 198.799988 631.200012 L 205.600006 638.133301 L 210.533325 632.93335 C 218.133331 625.06665 225.866669 622 238.666656 622.133301 C 246.933319 622.133301 250.533325 622.799988 254.666656 624.93335 C 261.333344 628.533325 267.466675 634.93335 271.466675 642.666626 C 274.533325 648.533325 274.666656 649.733337 275.066681 685.599976 L 275.466675 722.666626 L 263.466675 722.666626 L 251.466675 722.666626 L 251.066681 690.266663 C 250.666656 660.666626 250.399994 657.599976 248 653.333374 C 244.266663 646.93335 237.600006 643.733337 229.600006 644.400024 C 222.266663 645.06665 217.200012 648.266663 213.333344 654.799988 C 210.933319 658.93335 210.666656 661.733337 210.666656 690.93335 L 210.666656 722.666626 L 198.399994 722.666626 L 186 722.666626 L 186 689.599976 C 186 659.333374 185.733337 656.266663 183.333344 652.400024 C 176 640.266663 155.200012 641.866699 148.799988 655.200012 C 146.266663 660.400024 146 663.200012 146 691.733337 L 146 722.666626 L 134 722.666626 L 122 722.666626 L 122 673.333374 L 122 624 L 134 624 L 146 624 L 146 630.93335 L 146 638 L 149.333344 633.733337 C 157.333344 623.599976 172.933319 619.06665 186.666656 622.799988 Z M 442.133362 626.266663 C 449.733337 630.266663 454.666687 636.266663 458.133362 645.466675 C 460.400024 651.333374 460.666687 656.133301 460.666687 687.333374 L 460.666687 722.666626 L 448.666687 722.666626 L 436.666687 722.666626 L 436.666687 690.93335 C 436.666687 656.266663 436 653.200012 428.400024 647.599976 C 418.93335 640.666626 402.533325 644.400024 396.666687 654.93335 C 393.600006 660.400024 393.466675 661.599976 393.333344 691.333374 L 393.200012 722 L 381.333344 722.400024 L 369.333344 722.799988 L 369.333344 673.333374 L 369.333344 624 L 381.466675 624 L 393.600006 624 L 393.333344 630.666626 C 393.200012 634.266663 393.333344 637.333374 393.733337 637.333374 C 394 637.333374 395.466675 635.866699 396.799988 634 C 406.666687 621.599976 427.200012 618 442.133362 626.266663 Z M 584.93335 624 C 592.400024 626.133301 600.799988 633.200012 604.533325 640.666626 C 608 647.200012 608 647.466675 608.400024 684.93335 L 608.799988 722.666626 L 598.93335 722.666626 C 588.133362 722.666626 587.333313 722.133301 587.333313 714.533325 L 587.333313 710.666626 L 582.133362 715.866699 C 576 722 566.93335 725.333374 556.666687 725.333374 C 534.93335 725.333374 520.666687 712.93335 520.666687 694.266663 C 520.666687 684.666626 522.93335 679.06665 529.200012 673.733337 C 536.799988 666.93335 548.533325 664.266663 572.400024 664.133301 C 584.666687 664 584.666687 664 584.666687 660.666626 C 584.666687 658.799988 583.866638 655.200012 582.799988 652.666626 C 577.06665 639.200012 555.200012 639.333374 549.06665 652.93335 C 547.733337 655.733337 546.666687 658.266663 546.533325 658.400024 C 546.266663 658.666626 542.666687 658.266663 538.400024 657.333374 C 523.599976 654.533325 524.666687 655.06665 525.599976 650.266663 C 528.266663 636.400024 539.200012 625.866699 554.400024 622.666626 C 561.06665 621.200012 577.866638 622 584.93335 624 Z M 797.333313 625.200012 C 801.06665 626.799988 805.866638 630 808.266663 632.266663 C 812.799988 636.666626 818.533325 648.533325 817.466675 651.333374 C 817.06665 652.400024 813.333313 653.466675 808.400024 654 C 803.733337 654.400024 798.93335 655.200012 797.733337 655.466675 C 796 656 795.333313 655.466675 795.333313 653.466675 C 795.333313 652 793.599976 648.799988 791.599976 646.533325 C 782.266663 636 758.400024 643.06665 764.533325 654.533325 C 766.666687 658.400024 772.133362 660.93335 785.599976 664 C 810 669.733337 818.133362 676.400024 819.06665 691.333374 C 820 705.866699 815.200012 714.666626 802.799988 720.93335 C 793.599976 725.733337 774 726.799988 762.400024 723.200012 C 752.533325 720.133301 742.133362 710.266663 739.06665 701.06665 L 736.93335 694.799988 L 743.733337 693.466675 C 760.799988 690.266663 759.733337 690.133301 762.266663 696 C 764 700.266663 765.866638 702 770.799988 704.133301 C 780.799988 708.666626 793.733337 705.599976 796.533325 698.266663 C 799.06665 691.866699 794.93335 689.06665 777.333313 684.666626 C 759.466675 680.266663 748.400024 673.733337 744 665.333374 C 741.466675 660.400024 740.533325 649.06665 742.266663 643.466675 C 745.333313 633.733337 754.799988 625.733337 766.93335 622.666626 C 775.06665 620.666626 789.866638 621.866699 797.333313 625.200012 Z M 939.199951 625.466675 C 947.466675 628.93335 955.466675 637.599976 958 645.599976 C 959.199951 649.599976 959.866699 662.400024 960.133301 686.93335 L 960.533325 722.666626 L 949.866699 722.666626 L 939.333374 722.666626 L 939.333374 718.799988 C 939.333374 711.333374 938.133301 710.400024 934.400024 714.799988 C 926.133301 724.533325 907.06665 728.266663 892.533325 722.799988 C 880.533325 718.266663 873.733337 710.266663 872 698.266663 C 869.866638 684.266663 876.666687 673.333374 890.666687 668 C 897.466675 665.466675 901.466675 664.93335 916.93335 664.799988 L 935.333374 664.666626 L 935.333374 659.599976 C 935.333374 649.200012 928.400024 642.666626 917.333374 642.666626 C 907.733276 642.666626 899.333313 649.200012 899.333313 656.666626 C 899.333313 659.06665 897.599976 659.06665 886.133362 656.93335 C 881.333313 656 877.200012 654.400024 876.93335 653.466675 C 875.866638 650.133301 879.733337 640 884.266663 634.666626 C 889.466675 628.666626 896.799988 624.400024 905.06665 622.666626 C 914.266724 620.666626 931.599976 622.133301 939.199951 625.466675 Z M 1002.800049 673.333374 L 1002.666626 722.666626 L 990.666626 722.666626 L 978.666626 722.666626 L 979.06665 673.333374 L 979.333374 624 L 991.06665 624 L 1002.800049 624 L 1002.800049 673.333374 Z M 852 694.666626 C 864 699.200012 865.733337 716.133301 855.06665 722.666626 C 849.733337 725.866699 845.866638 726 840 723.200012 C 827.733337 717.466675 829.466675 698.533325 842.533325 694.799988 C 848.133362 693.200012 848 693.200012 852 694.666626 Z"/>
        <path id="path1" fill="#e2e8f0" stroke="none" d="M 518.666687 82.666626 C 517.200012 83.199951 514.400024 85.466675 512.533325 87.466675 C 504.266663 96.400024 411.333313 213.599976 411.333313 214.93335 C 411.333313 216.533325 434.93335 258.93335 439.599976 265.599976 C 441.06665 267.733337 441.733337 269.333313 441.06665 269.333313 C 440.533325 269.333313 434 265.200012 426.666687 260.133362 C 372.133331 222.533325 369.200012 220.799988 365.066681 223.466675 C 363.333344 224.666687 296.133331 317.866638 245.600006 389.333313 C 232.399994 408 211.733337 436.799988 199.733337 453.333313 C 187.733337 469.866638 176.399994 486.533325 174.399994 490.400024 C 168.133331 503.200012 149.600006 502 357.333344 502 L 539.200012 502 L 542 499.200012 C 546.266663 494.93335 546.666687 487.200012 543.06665 479.733337 C 540.93335 475.333313 523.333313 456.666687 482.133362 414.93335 L 424.400024 356.266663 L 414.799988 356.93335 C 406.799988 357.599976 404.400024 357.200012 400 354.93335 C 381.066681 345.200012 377.333344 321.333313 392.533325 306.533325 C 414.799988 284.93335 449.06665 307.333313 440.533325 337.866638 L 439.06665 343.06665 L 460.266663 364.266663 L 481.333313 385.333313 L 482 345.733337 C 482.799988 299.599976 482 302.400024 497.333313 285.599976 C 511.466675 270 511.333313 270.400024 511.333313 246.133362 L 511.333313 225.466675 L 504.133362 220.799988 C 483.333313 207.466675 484.533325 179.06665 506.533325 167.733337 C 521.466675 160.133362 542.266663 169.06665 547.200012 185.200012 C 550.799988 197.466675 547.866638 207.599976 538.133362 217.200012 L 530.666687 224.533325 L 530 250.533325 C 529.200012 281.06665 529.06665 281.466675 514.400024 297.200012 C 509.466675 302.533325 504.666687 308.533325 503.733337 310.533325 C 502 314.266663 501.333313 345.333313 503.06665 345.333313 C 503.599976 345.333313 520.133362 329.200012 539.733337 309.466675 L 575.466675 273.733337 L 574.400024 268.533325 C 572.266663 258.266663 573.200012 249.866638 577.466675 243.06665 C 587.733337 226.533325 608.266663 223.200012 622.266663 235.733337 C 632.93335 245.333313 635.599976 258.93335 629.200012 271.733337 C 625.733337 278.799988 616.266663 286.533325 610.799988 286.799988 C 604 287.200012 599.733337 287.06665 596 286.133362 C 592.133362 285.333313 590.266663 287.06665 547.200012 330.266663 C 510.666687 367.06665 502.266663 376.133362 501.466675 379.866638 C 500 387.599976 500.533325 401.200012 502.533325 405.733337 C 503.599976 408.133362 514.93335 420.533325 527.866638 433.333313 L 551.333313 456.666687 L 551.333313 440.666687 C 551.333313 418.799988 552.533325 416.533325 576.133362 392.133362 L 594.666687 372.93335 L 594.266663 364 C 593.466675 349.733337 599.200012 339.733337 611.200012 334.400024 C 622.93335 329.06665 636.666687 332.133362 646.666687 342.533325 C 650.93335 347.06665 652.799988 348 656.93335 348 C 665.06665 348 670 345.06665 681.200012 333.466675 C 689.06665 325.333313 691.333313 322.133362 690.666687 320.400024 C 688.400024 314.533325 688.93335 305.599976 691.866638 299.200012 C 705.06665 270.799988 746.266663 279.599976 746.133362 310.666687 C 746.133362 332 728.666687 345.733337 708.799988 340 C 704.266663 338.799988 704 338.93335 692.133362 350.400024 C 679.06665 362.93335 671.866638 366.666687 660.133362 366.666687 C 653.333313 366.666687 652.133362 367.466675 650.133362 373.333313 L 648.666687 377.866638 L 670.93335 400.133362 C 695.866638 424.799988 696.533325 425.333313 713.599976 425.333313 L 723.333313 425.333313 L 725.866638 420.266663 C 734.799988 402.799988 759.06665 400 772.266663 415.06665 C 777.866638 421.466675 779.866638 428 778.93335 437.599976 C 776.533325 464.133362 745.599976 474 728.93335 453.733337 C 726.533325 450.93335 723.866638 447.733337 722.93335 446.533325 C 721.599976 444.93335 718.93335 444.533325 711.466675 444.799988 C 700.799988 445.06665 690.93335 442.799988 683.333313 438.266663 C 680.799988 436.799988 668.133362 425.06665 655.200012 412.266663 C 632.266663 389.733337 631.466675 389.200012 626.93335 389.866638 C 624.400024 390.266663 619.200012 389.733337 615.466675 388.799988 L 608.533325 387.06665 L 592.266663 404.266663 C 583.333313 413.733337 574.799988 423.733337 573.333313 426.400024 C 570.93335 430.93335 570.666687 433.866638 570.666687 461.599976 C 570.666687 490.133362 570.799988 492 573.466675 495.599976 C 574.93335 497.599976 577.733337 500.133362 579.466675 500.93335 C 583.733337 503.200012 946 503.466675 950.133301 501.333313 C 953.599976 499.333313 953.199951 496.133362 948.93335 491.200012 C 931.866699 471.733337 875.466675 405.599976 844.533325 368.666687 C 809.733337 327.06665 726.799988 228.666687 688.266663 183.333313 C 668.266663 159.866638 667.06665 158.666687 662.400024 159.466675 C 660.400024 159.866638 657.733337 161.06665 656.533325 162.133362 C 651.866638 166.400024 652.533325 171.06665 661.466675 200 C 666.266663 215.599976 669.866638 229.200012 669.333313 230.400024 C 668.533325 232.666687 668 232.266663 640 202.666687 C 634.799988 197.200012 618 179.200012 602.666687 162.666687 C 587.333313 146.133362 568.133362 125.466675 560 116.666687 C 551.866638 107.866638 542.533325 97.733337 539.333313 94.266663 C 529.866638 83.866699 523.866638 80.533325 518.666687 82.666626 Z"/>
        <path id="path2" fill="#e2e8f0" stroke="none" d="M 665.200012 646.533325 C 655.866638 650.799988 651.333313 660.133301 651.333313 675.333374 C 651.466675 694 664.400024 705.599976 681.866638 702.400024 C 692.666687 700.400024 699.733337 693.06665 702.266663 681.200012 C 707.466675 656 686.799988 636.666626 665.200012 646.533325 Z"/>
        <path id="path3" fill="#e2e8f0" stroke="none" d="M 553.06665 681.466675 C 545.866638 683.599976 542.400024 692 546 698.799988 C 549.733337 705.599976 563.866638 707.466675 574 702.266663 C 580.93335 698.93335 584.666687 692.666626 584.666687 684.93335 L 584.666687 680 L 571.06665 680.133301 C 563.466675 680.133301 555.466675 680.799988 553.06665 681.466675 Z"/>
        <path id="path4" fill="#e2e8f0" stroke="none" d="M 904.666687 681.466675 C 897.06665 684.533325 894.400024 691.866699 898.133362 698.93335 C 901.599976 705.466675 916.400024 707.333374 925.199951 702.266663 C 932.133301 698.400024 935.06665 694 935.733276 686.266663 L 936.266724 680 L 922.133301 680.133301 C 914.400024 680.133301 906.533325 680.799988 904.666687 681.466675 Z"/>
    </g>
</svg>
