<?xml version="1.0" encoding="UTF-8"?>
<!-- Generated by Pixelmator Pro 3.7.1 -->
<svg width="1100" height="788" viewBox="0 0 1100 788" xmlns="http://www.w3.org/2000/svg">
    <g id="Group">
        <path id="path1" fill="#e2e8f0" stroke="none" d="M 518.666687 82.666626 C 517.200012 83.199951 514.400024 85.466675 512.533325 87.466675 C 504.266663 96.400024 411.333313 213.599976 411.333313 214.93335 C 411.333313 216.533325 434.93335 258.93335 439.599976 265.599976 C 441.06665 267.733337 441.733337 269.333313 441.06665 269.333313 C 440.533325 269.333313 434 265.200012 426.666687 260.133362 C 372.133331 222.533325 369.200012 220.799988 365.066681 223.466675 C 363.333344 224.666687 296.133331 317.866638 245.600006 389.333313 C 232.399994 408 211.733337 436.799988 199.733337 453.333313 C 187.733337 469.866638 176.399994 486.533325 174.399994 490.400024 C 168.133331 503.200012 149.600006 502 357.333344 502 L 539.200012 502 L 542 499.200012 C 546.266663 494.93335 546.666687 487.200012 543.06665 479.733337 C 540.93335 475.333313 523.333313 456.666687 482.133362 414.93335 L 424.400024 356.266663 L 414.799988 356.93335 C 406.799988 357.599976 404.400024 357.200012 400 354.93335 C 381.066681 345.200012 377.333344 321.333313 392.533325 306.533325 C 414.799988 284.93335 449.06665 307.333313 440.533325 337.866638 L 439.06665 343.06665 L 460.266663 364.266663 L 481.333313 385.333313 L 482 345.733337 C 482.799988 299.599976 482 302.400024 497.333313 285.599976 C 511.466675 270 511.333313 270.400024 511.333313 246.133362 L 511.333313 225.466675 L 504.133362 220.799988 C 483.333313 207.466675 484.533325 179.06665 506.533325 167.733337 C 521.466675 160.133362 542.266663 169.06665 547.200012 185.200012 C 550.799988 197.466675 547.866638 207.599976 538.133362 217.200012 L 530.666687 224.533325 L 530 250.533325 C 529.200012 281.06665 529.06665 281.466675 514.400024 297.200012 C 509.466675 302.533325 504.666687 308.533325 503.733337 310.533325 C 502 314.266663 501.333313 345.333313 503.06665 345.333313 C 503.599976 345.333313 520.133362 329.200012 539.733337 309.466675 L 575.466675 273.733337 L 574.400024 268.533325 C 572.266663 258.266663 573.200012 249.866638 577.466675 243.06665 C 587.733337 226.533325 608.266663 223.200012 622.266663 235.733337 C 632.93335 245.333313 635.599976 258.93335 629.200012 271.733337 C 625.733337 278.799988 616.266663 286.533325 610.799988 286.799988 C 604 287.200012 599.733337 287.06665 596 286.133362 C 592.133362 285.333313 590.266663 287.06665 547.200012 330.266663 C 510.666687 367.06665 502.266663 376.133362 501.466675 379.866638 C 500 387.599976 500.533325 401.200012 502.533325 405.733337 C 503.599976 408.133362 514.93335 420.533325 527.866638 433.333313 L 551.333313 456.666687 L 551.333313 440.666687 C 551.333313 418.799988 552.533325 416.533325 576.133362 392.133362 L 594.666687 372.93335 L 594.266663 364 C 593.466675 349.733337 599.200012 339.733337 611.200012 334.400024 C 622.93335 329.06665 636.666687 332.133362 646.666687 342.533325 C 650.93335 347.06665 652.799988 348 656.93335 348 C 665.06665 348 670 345.06665 681.200012 333.466675 C 689.06665 325.333313 691.333313 322.133362 690.666687 320.400024 C 688.400024 314.533325 688.93335 305.599976 691.866638 299.200012 C 705.06665 270.799988 746.266663 279.599976 746.133362 310.666687 C 746.133362 332 728.666687 345.733337 708.799988 340 C 704.266663 338.799988 704 338.93335 692.133362 350.400024 C 679.06665 362.93335 671.866638 366.666687 660.133362 366.666687 C 653.333313 366.666687 652.133362 367.466675 650.133362 373.333313 L 648.666687 377.866638 L 670.93335 400.133362 C 695.866638 424.799988 696.533325 425.333313 713.599976 425.333313 L 723.333313 425.333313 L 725.866638 420.266663 C 734.799988 402.799988 759.06665 400 772.266663 415.06665 C 777.866638 421.466675 779.866638 428 778.93335 437.599976 C 776.533325 464.133362 745.599976 474 728.93335 453.733337 C 726.533325 450.93335 723.866638 447.733337 722.93335 446.533325 C 721.599976 444.93335 718.93335 444.533325 711.466675 444.799988 C 700.799988 445.06665 690.93335 442.799988 683.333313 438.266663 C 680.799988 436.799988 668.133362 425.06665 655.200012 412.266663 C 632.266663 389.733337 631.466675 389.200012 626.93335 389.866638 C 624.400024 390.266663 619.200012 389.733337 615.466675 388.799988 L 608.533325 387.06665 L 592.266663 404.266663 C 583.333313 413.733337 574.799988 423.733337 573.333313 426.400024 C 570.93335 430.93335 570.666687 433.866638 570.666687 461.599976 C 570.666687 490.133362 570.799988 492 573.466675 495.599976 C 574.93335 497.599976 577.733337 500.133362 579.466675 500.93335 C 583.733337 503.200012 946 503.466675 950.133301 501.333313 C 953.599976 499.333313 953.199951 496.133362 948.93335 491.200012 C 931.866699 471.733337 875.466675 405.599976 844.533325 368.666687 C 809.733337 327.06665 726.799988 228.666687 688.266663 183.333313 C 668.266663 159.866638 667.06665 158.666687 662.400024 159.466675 C 660.400024 159.866638 657.733337 161.06665 656.533325 162.133362 C 651.866638 166.400024 652.533325 171.06665 661.466675 200 C 666.266663 215.599976 669.866638 229.200012 669.333313 230.400024 C 668.533325 232.666687 668 232.266663 640 202.666687 C 634.799988 197.200012 618 179.200012 602.666687 162.666687 C 587.333313 146.133362 568.133362 125.466675 560 116.666687 C 551.866638 107.866638 542.533325 97.733337 539.333313 94.266663 C 529.866638 83.866699 523.866638 80.533325 518.666687 82.666626 Z"/>
        <path id="path2" fill="#e2e8f0" stroke="none" d="M 665.200012 646.533325 C 655.866638 650.799988 651.333313 660.133301 651.333313 675.333374 C 651.466675 694 664.400024 705.599976 681.866638 702.400024 C 692.666687 700.400024 699.733337 693.06665 702.266663 681.200012 C 707.466675 656 686.799988 636.666626 665.200012 646.533325 Z"/>
        <path id="path3" fill="#e2e8f0" stroke="none" d="M 553.06665 681.466675 C 545.866638 683.599976 542.400024 692 546 698.799988 C 549.733337 705.599976 563.866638 707.466675 574 702.266663 C 580.93335 698.93335 584.666687 692.666626 584.666687 684.93335 L 584.666687 680 L 571.06665 680.133301 C 563.466675 680.133301 555.466675 680.799988 553.06665 681.466675 Z"/>
        <path id="path4" fill="#e2e8f0" stroke="none" d="M 904.666687 681.466675 C 897.06665 684.533325 894.400024 691.866699 898.133362 698.93335 C 901.599976 705.466675 916.400024 707.333374 925.199951 702.266663 C 932.133301 698.400024 935.06665 694 935.733276 686.266663 L 936.266724 680 L 922.133301 680.133301 C 914.400024 680.133301 906.533325 680.799988 904.666687 681.466675 Z"/>
    </g>
</svg>
